<svg width="28" height="29" viewBox="0 0 28 29" fill="none" xmlns="http://www.w3.org/2000/svg">
<path d="M14.0541 22.4152C18.3957 22.4152 21.9152 18.8957 21.9152 14.5541C21.9152 10.2125 18.3957 6.69299 14.0541 6.69299C9.71253 6.69299 6.19299 10.2125 6.19299 14.5541C6.19299 18.8957 9.71253 22.4152 14.0541 22.4152Z" stroke="#05173C" stroke-width="0.969296" stroke-miterlimit="10"/>
<path d="M14.0542 21.5166C17.8995 21.5166 21.0168 18.3994 21.0168 14.554C21.0168 10.7087 17.8995 7.59143 14.0542 7.59143C10.2088 7.59143 7.09155 10.7087 7.09155 14.554C7.09155 18.3994 10.2088 21.5166 14.0542 21.5166Z" stroke="#00BCE0" stroke-width="0.775437" stroke-miterlimit="10"/>
<path d="M13.0017 12.7052C14.177 12.7052 15.1298 11.7524 15.1298 10.577C15.1298 9.40166 14.177 8.44885 13.0017 8.44885C11.8263 8.44885 10.8735 9.40166 10.8735 10.577C10.8735 11.7524 11.8263 12.7052 13.0017 12.7052Z" fill="#FFDF6B"/>
<path d="M14.0542 20.6198C15.2295 20.6198 16.1823 19.667 16.1823 18.4917C16.1823 17.3163 15.2295 16.3635 14.0542 16.3635C12.8788 16.3635 11.926 17.3163 11.926 18.4917C11.926 19.667 12.8788 20.6198 14.0542 20.6198Z" fill="#FFDF6B"/>
<path d="M9.8085 13.1561C10.3967 13.1561 10.8735 12.6793 10.8735 12.0911C10.8735 11.5029 10.3967 11.0261 9.8085 11.0261C9.22034 11.0261 8.74353 11.5029 8.74353 12.0911C8.74353 12.6793 9.22034 13.1561 9.8085 13.1561Z" fill="#FFDF6B"/>
<path d="M17.7288 12.093C18.317 12.093 18.7938 11.6162 18.7938 11.028C18.7938 10.4398 18.317 9.96301 17.7288 9.96301C17.1406 9.96301 16.6638 10.4398 16.6638 11.028C16.6638 11.6162 17.1406 12.093 17.7288 12.093Z" fill="#FFDF6B"/>
<path d="M10.5568 19.2883C11.145 19.2883 11.6218 18.8115 11.6218 18.2233C11.6218 17.6351 11.145 17.1583 10.5568 17.1583C9.96863 17.1583 9.49182 17.6351 9.49182 18.2233C9.49182 18.8115 9.96863 19.2883 10.5568 19.2883Z" fill="#FFDF6B"/>
<path d="M8.92435 14.9478C9.33953 14.9478 9.6761 14.6113 9.6761 14.1961C9.6761 13.7809 9.33953 13.4443 8.92435 13.4443C8.50918 13.4443 8.17261 13.7809 8.17261 14.1961C8.17261 14.6113 8.50918 14.9478 8.92435 14.9478Z" fill="#FFDF6B"/>
<path d="M19.3665 16.4531C19.7817 16.4531 20.1182 16.1165 20.1182 15.7013C20.1182 15.2862 19.7817 14.9496 19.3665 14.9496C18.9513 14.9496 18.6147 15.2862 18.6147 15.7013C18.6147 16.1165 18.9513 16.4531 19.3665 16.4531Z" fill="#FFDF6B"/>
<path d="M16.1823 10.371C16.5975 10.371 16.934 10.0345 16.934 9.6193C16.934 9.20412 16.5975 8.86755 16.1823 8.86755C15.7671 8.86755 15.4305 9.20412 15.4305 9.6193C15.4305 10.0345 15.7671 10.371 16.1823 10.371Z" fill="#FFDF6B"/>
<path d="M9.25019 17.1315C9.77312 17.1315 10.197 16.7076 10.197 16.1846C10.197 15.6617 9.77312 15.2378 9.25019 15.2378C8.72726 15.2378 8.30334 15.6617 8.30334 16.1846C8.30334 16.7076 8.72726 17.1315 9.25019 17.1315Z" fill="#FFDF6B"/>
<path d="M11.6199 15.4688C12.3831 15.4688 13.0017 14.8501 13.0017 14.087C13.0017 13.3238 12.3831 12.7052 11.6199 12.7052C10.8568 12.7052 10.2382 13.3238 10.2382 14.087C10.2382 14.8501 10.8568 15.4688 11.6199 15.4688Z" fill="#FFDF6B"/>
<path d="M18.7919 14.8261C19.5551 14.8261 20.1737 14.2074 20.1737 13.4443C20.1737 12.6811 19.5551 12.0625 18.7919 12.0625C18.0288 12.0625 17.4102 12.6811 17.4102 13.4443C17.4102 14.2074 18.0288 14.8261 18.7919 14.8261Z" fill="#FFDF6B"/>
<path d="M17.7287 18.9483C18.4918 18.9483 19.1105 18.3296 19.1105 17.5665C19.1105 16.8033 18.4918 16.1847 17.7287 16.1847C16.9656 16.1847 16.3469 16.8033 16.3469 17.5665C16.3469 18.3296 16.9656 18.9483 17.7287 18.9483Z" fill="#FFDF6B"/>
</svg>
