<svg width="28" height="29" viewBox="0 0 28 29" fill="none" xmlns="http://www.w3.org/2000/svg">
<path d="M21.7503 11.3456C21.156 12.2853 19.8906 13.8961 19.9103 14.9504C19.9103 15.192 19.9579 15.4313 20.0503 15.6545C20.1428 15.8778 20.2783 16.0806 20.4492 16.2515C20.62 16.4223 20.8229 16.5578 21.0461 16.6503C21.2694 16.7428 21.5086 16.7904 21.7503 16.7904C21.9919 16.7904 22.2311 16.7428 22.4544 16.6503C22.6776 16.5578 22.8805 16.4223 23.0513 16.2515C23.2222 16.0806 23.3577 15.8778 23.4502 15.6545C23.5426 15.4313 23.5902 15.192 23.5902 14.9504C23.6099 13.8961 22.3445 12.2853 21.7503 11.3456ZM21.7699 16.2552C21.5549 16.277 21.338 16.2437 21.1394 16.1585C20.9408 16.0734 20.7671 15.9391 20.6346 15.7684C20.5022 15.5976 20.4153 15.396 20.3822 15.1825C20.3491 14.9689 20.3709 14.7505 20.4454 14.5477C20.5187 14.9155 20.6765 15.2613 20.9063 15.5576C21.1362 15.854 21.4319 16.0928 21.7699 16.2552Z" fill="#00BCE0"/>
<path fill-rule="evenodd" clip-rule="evenodd" d="M4.56567 15.7468L7.34534 22.0633C7.34534 22.0633 8.96876 21.8091 11.0432 21.7053C17.3579 21.3724 18.4229 19.5736 18.6126 18.6625C18.8023 17.7515 18.1723 17.4096 18.1723 17.4096L16.2034 18.3171L16.1426 18.1381C16.1426 18.1381 18.3602 17.3058 18.7128 16.4914C19.1674 15.4407 18.1419 14.6872 18.1419 14.6872L15.7202 15.8077L15.6432 15.609C15.6432 15.609 18.362 14.5136 18.5786 14.0375C19.1048 12.8866 18.0094 12.0919 18.0094 12.0919L14.9308 13.5238L14.8718 13.3949C14.8718 13.3949 22.0008 10.1266 22.7687 9.68093C23.2126 9.42319 23.6403 8.786 23.2251 7.89106C22.7579 6.88873 21.7932 6.96033 21.326 7.14826C20.6602 7.41137 10.8982 11.7787 10.8982 11.7787L10.8428 11.6856L13.4524 10.4774C13.4524 10.4774 11.9811 8.32958 10.2682 9.53595C8.5553 10.7423 8.12036 12.4892 7.31134 13.4307C6.50232 14.3722 4.56567 15.7468 4.56567 15.7468Z" fill="#FF9441"/>
<path fill-rule="evenodd" clip-rule="evenodd" d="M20.3452 10.8586C20.1809 10.7061 20.0563 10.5158 19.9823 10.3042C19.9083 10.0926 19.8871 9.86611 19.9206 9.64445C19.954 9.42278 20.0411 9.21264 20.1742 9.03229C20.3074 8.85194 20.4826 8.70685 20.6845 8.60961C20.8865 8.51237 21.1092 8.46594 21.3332 8.47436C21.5572 8.48277 21.7758 8.54577 21.9699 8.65789C22.1641 8.77 22.3279 8.92783 22.4471 9.11766C22.5663 9.30749 22.6374 9.52357 22.6541 9.74712" fill="#05173C"/>
</svg>
