<svg width="28" height="29" viewBox="0 0 28 29" fill="none" xmlns="http://www.w3.org/2000/svg">
<path d="M17.7445 8.30897C16.9834 8.31232 16.2363 8.5142 15.5771 8.89465C14.9179 9.2751 14.3694 9.82096 13.9857 10.4783C13.6057 9.8178 13.0579 9.26937 12.3979 8.88845C11.7379 8.50754 10.989 8.30764 10.227 8.30897C7.8071 8.30897 5.78455 10.4783 5.78455 13.0647C5.78455 14.1923 5.92953 14.6505 6.57746 15.7137C7.22539 16.7768 14.0108 23.1434 14.0108 23.1434C14.0108 23.1434 20.7694 16.7804 21.4155 15.7155C22.0616 14.6505 22.2084 14.1726 22.2084 13.0664C22.2084 10.4998 20.2055 8.30897 17.7445 8.30897Z" fill="#7BDB9F"/>
<path fill-rule="evenodd" clip-rule="evenodd" d="M12.4406 10.9625L14.1276 16.9304L15.5578 13.0104L16.9288 15.7834H22.0366V16.6783H16.373L15.6821 15.2809L14.0194 19.8377L12.4632 14.3325L11.834 16.6783H5.98328V15.7834H11.1475L12.4406 10.9625Z" fill="#05173C"/>
<path d="M14.0126 7.95088C14.12 7.94125 14.2206 7.89421 14.2968 7.81799C14.373 7.74177 14.42 7.6412 14.4297 7.53384V6.28093C14.4297 6.22617 14.4189 6.17194 14.3979 6.12134C14.377 6.07074 14.3462 6.02477 14.3075 5.98604C14.2688 5.94731 14.2228 5.9166 14.1722 5.89564C14.1216 5.87468 14.0674 5.86389 14.0126 5.86389C13.9579 5.86389 13.9036 5.87468 13.853 5.89564C13.8024 5.9166 13.7565 5.94731 13.7177 5.98604C13.679 6.02477 13.6483 6.07074 13.6273 6.12134C13.6064 6.17194 13.5956 6.22617 13.5956 6.28093V7.53384C13.6 7.64304 13.6453 7.74657 13.7226 7.82385C13.7999 7.90112 13.9034 7.94647 14.0126 7.95088Z" fill="#00BCE0"/>
<path d="M21.6124 6.426C21.5946 6.42424 21.5766 6.42424 21.5587 6.426C21.4674 6.43972 21.3831 6.48312 21.3189 6.5495L20.483 7.39253C20.4437 7.43098 20.4123 7.47683 20.3908 7.52745C20.3692 7.57807 20.3579 7.63245 20.3574 7.68746C20.357 7.74248 20.3674 7.79704 20.3882 7.848C20.4089 7.89896 20.4395 7.94531 20.4782 7.98439C20.517 8.02347 20.563 8.0545 20.6138 8.0757C20.6646 8.09689 20.719 8.10783 20.774 8.10789C20.8291 8.10794 20.8835 8.09711 20.9344 8.07601C20.9852 8.05492 21.0313 8.02398 21.0701 7.98498L21.9042 7.1509C21.9637 7.09299 22.0046 7.01862 22.0216 6.93733C22.0386 6.85604 22.0309 6.77152 21.9996 6.69461C21.9682 6.6177 21.9146 6.5519 21.8457 6.50564C21.7767 6.45938 21.6955 6.43477 21.6124 6.43495V6.426Z" fill="#00BCE0"/>
<path d="M6.17654 6.43133C6.0975 6.43969 6.02248 6.47036 5.96022 6.51977C5.89797 6.56918 5.85105 6.63528 5.82496 6.71036C5.79888 6.78543 5.79469 6.86638 5.81289 6.94375C5.83109 7.02111 5.87093 7.09171 5.92775 7.14728L6.76183 7.98136C6.79802 8.02908 6.84405 8.06845 6.89681 8.09678C6.94958 8.12512 7.00782 8.14176 7.06759 8.14558C7.12735 8.14939 7.18724 8.14028 7.24318 8.11888C7.29911 8.09748 7.34978 8.06428 7.39173 8.02155C7.43369 7.97881 7.46595 7.92754 7.48632 7.87122C7.50669 7.8149 7.51469 7.75486 7.50978 7.69517C7.50486 7.63548 7.48715 7.57756 7.45785 7.52533C7.42855 7.4731 7.38834 7.42779 7.33996 7.39249L6.50588 6.55662C6.46283 6.51382 6.41126 6.48056 6.35453 6.45897C6.29779 6.43739 6.23715 6.42797 6.17654 6.43133Z" fill="#00BCE0"/>
</svg>
