<svg width="28" height="29" viewBox="0 0 28 29" fill="none" xmlns="http://www.w3.org/2000/svg">
<path d="M19.8082 10.1558H17.4814V9.28946H20.3452L21.6446 11.8884H23.5311C23.4894 10.6124 22.9537 9.40258 22.0371 8.51401C21.1204 7.62544 19.8945 7.1276 18.6179 7.1255H18.2331C17.2614 7.12465 16.3114 7.41246 15.5036 7.95242L14.4475 8.65584V11.278L16.2839 13.1108L18.1794 12.3519L18.5016 13.1556L16.6133 13.9127V16.6476H15.747V13.7981L14.1612 12.2123L13.1499 14.5732V16.7944L11.7645 18.6415L11.0718 18.1225L12.2836 16.5116V14.3977L13.5812 11.3675V8.65763L13.3754 8.51981L12.5198 7.94884C11.7111 7.40981 10.7604 7.12324 9.7885 7.1255H9.40905C8.87963 7.12533 8.3535 7.20869 7.85007 7.3725L8.84882 9.1051L10.4865 9.46307L10.2753 10.3831L9.14772 10.1307L8.84524 12.5918L7.91092 12.4772L8.22594 9.91591L6.97303 7.75554L6.84237 7.82892L6.69739 7.92199C6.02085 8.36848 5.46529 8.97542 5.08023 9.68871C4.69516 10.402 4.49256 11.1995 4.49048 12.0101C4.4903 12.7255 4.64378 13.4325 4.94054 14.0835C5.23729 14.7344 5.67039 15.314 6.21055 15.7831L7.64244 17.036L8.38703 15.7455L7.77131 14.6716L8.51411 14.242L8.95621 15.0045L10.0802 14.3548L10.5062 15.094L9.3643 15.7527L8.29038 17.6016L13.5812 22.1962V20.7804L12.4769 20.0484L12.9566 19.3324L13.8837 19.9338L14.9576 18.1583L15.7004 18.6039L14.4636 20.6659V22.1962L21.8469 15.7527C22.7341 14.9789 23.3146 13.9127 23.4828 12.7475H21.1076L19.8082 10.1558Z" fill="#FF5EC8"/>
</svg>
