<svg width="28" height="29" viewBox="0 0 28 29" fill="none" xmlns="http://www.w3.org/2000/svg">
  <path d="M19.8531 5.7533L20.7141 3.09534L22.0171 3.69852L20.6138 6.1059L19.8531 5.7533Z" fill="#05173C" />
  <path d="M22.1388 7.51995L24.8075 6.69482L25.0634 8.10703L22.2874 8.3433L22.1388 7.51995Z" fill="#05173C" />
  <path
    d="M19.9749 9.25978L18.722 11.7549L21.0488 12.0036L14.6965 19.7556L16.6654 14.028L14.1596 13.7989L15.8653 8.85169C14.8519 9.24715 13.9996 9.96969 13.4436 10.9047C13.0298 10.1862 12.4338 9.58953 11.7157 9.17502C10.9976 8.76051 10.1829 8.54278 9.35377 8.54383C6.71729 8.54383 4.52112 10.9065 4.52112 13.7237C4.52112 14.9498 4.68042 15.4509 5.38563 16.609C6.09084 17.767 13.4723 24.6974 13.4723 24.6974C13.4723 24.6974 20.834 17.767 21.5392 16.609C22.2444 15.4509 22.4019 14.9283 22.4019 13.7237C22.4032 12.836 22.1816 11.9622 21.7576 11.1823C21.3335 10.4024 20.7206 9.74137 19.9749 9.25978Z"
    fill="#E73458" />
  <path
    d="M17.4726 6.81128L15.1691 13.0669L17.5084 13.2566L16.1642 17.1925L19.8424 12.5174L17.657 12.3312L19.9946 7.02606L17.4726 6.81128Z"
    fill="#00BCE0" />
</svg>