<svg width="249" height="241" viewBox="0 0 249 241" fill="none" xmlns="http://www.w3.org/2000/svg">
  <path fill-rule="evenodd" clip-rule="evenodd"
    d="M139.044 49.4109L192.414 114.781L208.854 135.121L248.244 183.311H215.244L192.354 155.191L157.554 197.711L157.454 197.581L122.404 240.641L114.324 230.721L14.9838 109.241C3.82266 95.4766 -1.44139 77.8566 0.340251 60.2256C2.1219 42.5947 10.8046 26.384 24.4938 15.1309C26.7405 13.3047 29.1093 11.6342 31.5838 10.1309V10.0309C40.7638 4.1009 50.5838 0.100896 65.9138 0.100896C67.6638 0.0908958 69.4338 0.160896 71.1938 0.270896H73.5038C95.6138 2.4709 109.054 12.7209 122.564 29.2209C136.084 12.7209 149.534 2.5409 171.604 0.310896H171.984C180.693 -0.533489 189.483 0.346236 197.852 2.89982C206.22 5.4534 214.004 9.63079 220.758 15.1934C227.512 20.7559 233.104 27.5947 237.215 35.3189C241.325 43.0432 243.873 51.5016 244.714 60.2109C247.434 87.5209 234.584 104.491 219.304 122.571L202.804 102.571L202.604 102.791C212.404 91.2109 220.904 79.0109 219.344 62.7109V62.5509C218.793 57.1625 217.186 51.9355 214.614 47.1683C212.043 42.4011 208.558 38.1871 204.358 34.767C200.158 31.347 195.325 28.7878 190.136 27.2356C184.946 25.6835 179.502 25.1688 174.114 25.7209C157.052 27.4049 149.778 36.2936 140.183 48.0203C139.807 48.4796 139.427 48.9432 139.044 49.4109ZM115.274 105.471L157.584 157.311L175.784 135.021L138.134 88.9009V88.7209L98.8638 40.6109C94.9831 35.8521 90.0868 32.0219 84.5338 29.4009C84.5338 29.4009 70.8238 21.4009 53.1638 29.4009L98.7738 85.2909L82.2638 105.461L32.2038 44.1309C27.421 51.4883 25.0942 60.1727 25.5578 68.9357C26.0214 77.6988 29.2515 86.0892 34.7838 92.9009L122.434 200.181L141.084 177.501C126.977 160.201 112.867 142.914 98.7538 125.641L115.274 105.471ZM171.24 57.6617L171.064 57.8809L187.074 77.5109C187.61 76.8704 188.166 76.2334 188.725 75.5935C192.171 71.6477 195.713 67.5913 195.154 61.9209C194.994 60.2991 194.515 58.7247 193.747 57.2876C192.978 55.8505 191.934 54.5789 190.674 53.5454C189.414 52.5119 187.962 51.7367 186.403 51.2641C184.843 50.7915 183.206 50.6307 181.584 50.7909C176.368 51.2811 174.152 54.0392 171.24 57.6617Z"
    fill="url(#paint0_linear_3_4093)" />
  <defs>
    <linearGradient id="paint0_linear_3_4093" x1="60" y1="-106.5" x2="147" y2="209.5" gradientUnits="userSpaceOnUse">
      <stop stop-color="white" />
      <stop offset="1" stop-color="white" stop-opacity="0" />
    </linearGradient>
  </defs>
</svg>